# xmcd CD database file
#
# Track frame offsets:
#	150
#	1087
#	21780
#	37997
#	63402
#	81650
#	101112
#	119215
#	171062
#	193857
#	216075
#	233355
#	250277
#	269472
#	285007
#	305257
#
# Disc length: 4339 seconds
#
# Revision: 5
# Processed by: cddbd v1.5.1PL0 Copyright (c) Steve Scherf et al.
# Submitted via: CDex 1.51
#
DISCID=d710f110
DTITLE=Ginuwine - The Senior
DYEAR=2003
DGENRE=R&B
TTITLE0=Mike Tyson
TTITLE1=Get Ready (Feat. Snoop Dogg and The Rock)
TTITLE2=Chedda Brings (feat. Jose Cenquentez)
TTITLE3=Hell Yeah (Feat.Baby) (In Those Jeans Interlude)
TTITLE4=In Those Jeans
TTITLE5=Stingy
TTITLE6=Love You More
TTITLE7=Bedda To Have Loved ("Locked Down" The Movie)
TTITLE8=Locked Down
TTITLE9=On My Way (Sex Interlude)
TTITLE10=Sex (Feat. Sole)
TTITLE11=Bedda Man
TTITLE12=Our First Born
TTITLE13=Big Plans (Feat. Method Man)
TTITLE14=Hell Yeah (Feat. R.Kelly, Baby &Clipse)
TTITLE15=Tigger and The Gizzle
EXTD=YEAR: 2003
EXTT0=
EXTT1=
EXTT2=
EXTT3=
EXTT4=
EXTT5=
EXTT6=
EXTT7=
EXTT8=
EXTT9=
EXTT10=
EXTT11=
EXTT12=
EXTT13=
EXTT14=
EXTT15=
PLAYORDER=
